<svg width="48" height="30" viewBox="0 0 48 30" fill="none" xmlns="http://www.w3.org/2000/svg">
<path d="M47.6155 27.9323L32.6564 0.786177C32.421 0.354663 31.9764 0.0931396 31.4926 0.0931396C31.0088 0.0931396 30.5642 0.354663 30.3288 0.786177L16.5204 25.8139L2.72505 0.786177C2.37199 0.145445 1.56127 -0.0899262 0.907462 0.26313C0.26673 0.616186 0.0313588 1.42691 0.384415 2.08072L15.3566 29.2268C15.592 29.6583 16.0366 29.9199 16.5204 29.9199C17.0042 29.9199 17.4488 29.6583 17.6842 29.2268L31.4796 4.19906L38.5799 17.0791H27.8182C27.086 17.0791 26.4845 17.6806 26.4845 18.4128C26.4845 19.1451 27.086 19.7466 27.8182 19.7466H40.0444L45.2749 29.2138C45.5234 29.6583 45.9679 29.9068 46.4387 29.9068C46.661 29.9068 46.8833 29.8545 47.0794 29.7368C47.7463 29.3837 47.9817 28.573 47.6155 27.9323Z" fill="white"/>
</svg>
